<svg xmlns="http://www.w3.org/2000/svg" width="18.751" height="20.456" viewBox="0 0 18.751 20.456"><path d="M12.671,4a1.734,1.734,0,0,0-1.225.479A1.734,1.734,0,0,0,10.966,5.7v.852H5v1.7h.932L7.557,23.684l.08.772H21.115l.08-.772L22.819,8.262h.932v-1.7H17.785V5.7a1.734,1.734,0,0,0-.479-1.225A1.734,1.734,0,0,0,16.08,4Zm0,1.7H16.08v.852H12.671ZM7.664,8.262H21.088L19.57,22.751H9.182Zm3.3,2.557v9.376h1.7V10.819Zm2.557,0v9.376h1.7V10.819Zm2.557,0v9.376h1.7V10.819Z" transform="translate(-5 -4)" fill="#fff"/></svg>