<svg xmlns="http://www.w3.org/2000/svg" width="26" height="25" viewBox="0 0 26 25"><path d="M7,4A1.979,1.979,0,0,0,5.219,5.125,3.01,3.01,0,0,0,3,8v9.375l.25.281A10.468,10.468,0,0,0,9,20.906V23a6,6,0,0,0,12,0V18a2,2,0,0,1,4,0v.188a3,3,0,1,0,2,0V18a4,4,0,0,0-8,0v5a4,4,0,0,1-8,0V20.906a10.468,10.468,0,0,0,5.75-3.25l.25-.281V8a3.01,3.01,0,0,0-2.219-2.875A1.979,1.979,0,0,0,13,4a2,2,0,0,0,0,4,1.973,1.973,0,0,0,1.594-.812A.986.986,0,0,1,15,8v8.563C14.641,16.926,12.512,19,10,19s-4.641-2.074-5-2.437V8a.987.987,0,0,1,.406-.812A1.973,1.973,0,0,0,7,8,2,2,0,0,0,7,4ZM26,20a1,1,0,1,1-1,1A.987.987,0,0,1,26,20Z" transform="translate(-3 -4)" fill="#99ce34"/></svg>