<svg xmlns="http://www.w3.org/2000/svg" width="126.73" height="37" viewBox="0 0 126.73 37"><g transform="translate(-65.27 -38)"><g transform="translate(-66.432 -109.774)"><g transform="translate(131.701 149.044)"><path d="M32.6,98.114H18.488a2.316,2.316,0,0,0-3.247,0H1.134A1.135,1.135,0,0,0,0,99.248v.01a2.394,2.394,0,0,0,2.391,2.391h.176a1.136,1.136,0,0,0-.009.147v.01A2.394,2.394,0,0,0,4.949,104.2h.176a1.132,1.132,0,0,0-.009.144v.01a2.394,2.394,0,0,0,2.391,2.391h5.809a.494.494,0,1,0,0-.988H7.507a1.4,1.4,0,0,1-1.4-1.4v-.01a.146.146,0,0,1,.126-.144H8.3a.494.494,0,1,0,0-.988H4.949a1.4,1.4,0,0,1-1.4-1.4v-.01a.146.146,0,0,1,.145-.145h8.953a.494.494,0,1,0,0-.988H2.391a1.4,1.4,0,0,1-1.4-1.4v-.01a.146.146,0,0,1,.145-.145H14.642a2.34,2.34,0,0,0-.1.79l.161,3.315H10.023a.494.494,0,1,0,0,.988h4.733l.39,8.021H13.924a2.422,2.422,0,0,0-1.622,4.211.494.494,0,1,0,.666-.73,1.433,1.433,0,0,1,.957-2.493h1.27l.139,2.864H15.2a2.421,2.421,0,0,0-.8,4.7.494.494,0,0,0,.33-.931,1.433,1.433,0,0,1,.474-2.783h.178l.32,6.593a1.165,1.165,0,0,0,2.328,0l.32-6.593h1.457a2.422,2.422,0,0,0,2.375-2.85.494.494,0,1,0-.973.175,1.45,1.45,0,0,1,.023.255,1.43,1.43,0,0,1-1.424,1.432H18.4l.139-2.864h2.485a2.42,2.42,0,0,0,0-4.84.494.494,0,0,0,0,.988,1.432,1.432,0,0,1,0,2.864H18.585l.39-8.021h5.133a.494.494,0,1,0,0-.988H19.023l.161-3.315a2.34,2.34,0,0,0-.1-.79H32.6a.146.146,0,0,1,.145.145v.01a1.4,1.4,0,0,1-1.4,1.4H20.958a.494.494,0,0,0,0,.988h9.081a.146.146,0,0,1,.145.145v.01a1.4,1.4,0,0,1-1.4,1.4H25.994a.494.494,0,0,0,0,.988H27.5a.146.146,0,0,1,.126.144v.01a1.4,1.4,0,0,1-1.4,1.4h-5.9a.494.494,0,1,0,0,.988h5.9a2.394,2.394,0,0,0,2.391-2.391v-.01a1.132,1.132,0,0,0-.009-.144h.176a2.394,2.394,0,0,0,2.391-2.391v-.01a1.136,1.136,0,0,0-.009-.147h.176a2.394,2.394,0,0,0,2.391-2.391v-.01A1.135,1.135,0,0,0,32.6,98.114ZM17.042,123.6a.177.177,0,0,1-.354,0l-.318-6.545h.99Zm.366-7.533H16.322l-.139-2.864h1.365Zm.187-3.852H16.135l-.6-12.372a1.332,1.332,0,0,1,.369-.992,1.328,1.328,0,0,1,1.926,0,1.332,1.332,0,0,1,.369.992Z" transform="translate(0 -91.031)" fill="#131010"/><path d="M216.5,5.589a2.795,2.795,0,1,0-2.786-2.795A2.793,2.793,0,0,0,216.5,5.589Zm0-4.6a1.806,1.806,0,1,1-1.8,1.806A1.8,1.8,0,0,1,216.5.988Z" transform="translate(-199.636)" fill="#131010"/><path d="M284.986,400.648a.494.494,0,0,0-.326.618,1.438,1.438,0,0,1-.886,1.776.494.494,0,1,0,.33.931,2.426,2.426,0,0,0,1.5-3A.494.494,0,0,0,284.986,400.648Z" transform="translate(-264.771 -374.232)" fill="#131010"/><path d="M157.7,266.561a1.434,1.434,0,0,1,1-2.455.494.494,0,1,0,0-.988,2.422,2.422,0,0,0-1.69,4.148.494.494,0,1,0,.693-.7Z" transform="translate(-145.986 -245.784)" fill="#131010"/></g></g><text transform="translate(150 67)" fill="#131010" font-size="31" font-family="WorkSans-Regular, Work Sans"><tspan x="-41.013" y="0">SCDL</tspan></text></g></svg>