<svg xmlns="http://www.w3.org/2000/svg" width="18.408" height="18.416" viewBox="0 0 18.408 18.416"><path d="M20.135,4.031a2.264,2.264,0,0,0-1.609.672l-7.612,7.588-.168.168-.048.24-.528,2.689-.24,1.129,1.128-.24,2.689-.528.24-.048.168-.168,7.587-7.611a2.281,2.281,0,0,0-1.609-3.89Zm0,1.489a.765.765,0,0,1,.528.264.672.672,0,0,1,0,1.056L13.22,14.284l-1.321.264.264-1.321,7.443-7.443A.765.765,0,0,1,20.135,5.52ZM4,7.081V22.448H19.367V12.315L17.83,13.852v7.059H5.537V8.617H12.6l1.537-1.537Z" transform="translate(-4 -4.031)" fill="#fff"/></svg>